<?xml version="1.0" standalone="no"?>
<!DOCTYPE svg PUBLIC "-//W3C//DTD SVG 20010904//EN"
 "http://www.w3.org/TR/2001/REC-SVG-20010904/DTD/svg10.dtd">
<svg version="1.0" xmlns="http://www.w3.org/2000/svg"
 viewBox="0 0 2600.000000 2600.000000"
 preserveAspectRatio="xMidYMid meet">
<metadata>
Created by potrace 1.15, written by Peter Selinger 2001-2017
</metadata>
<g transform="translate(0.000000,2600.000000) scale(0.100000,-0.100000)"
fill="#000000" stroke="none">
<path d="M15915 24033 c-22 -1 -98 -8 -170 -13 -894 -72 -1794 -391 -2574
-912 -870 -582 -1581 -1438 -1991 -2398 -236 -550 -371 -1091 -426 -1705 -21
-229 -20 -693 1 -930 82 -930 380 -1786 889 -2555 592 -896 1433 -1603 2401
-2018 999 -428 2036 -558 3085 -386 868 142 1682 490 2395 1024 223 167 382
306 596 519 281 282 478 522 694 846 522 781 832 1685 905 2634 13 174 13 628
0 802 -115 1501 -816 2864 -1965 3824 -888 742 -1984 1183 -3147 1265 -132 9
-593 11 -693 3z"/>
<path d="M9635 16961 c-896 -366 -1582 -739 -2117 -1151 -149 -115 -413 -374
-496 -488 -180 -245 -316 -520 -392 -788 -45 -160 -66 -270 -104 -534 -40
-278 -62 -373 -107 -467 -59 -124 44 -50 -1617 -1149 -436 -289 -510 -334
-559 -344 -83 -18 -176 0 -288 54 -143 69 -234 139 -581 445 -220 195 -352
265 -453 242 -83 -18 -122 -66 -103 -126 5 -16 388 -601 851 -1300 587 -887
850 -1276 871 -1289 98 -60 205 79 185 243 -10 87 -30 155 -130 456 -55 164
-105 332 -120 406 -46 231 -28 381 58 473 57 61 1992 1345 2074 1376 126 47
245 38 543 -40 408 -108 541 -131 803 -137 384 -10 660 36 971 164 591 241
1375 824 2174 1617 247 246 262 263 262 297 0 31 -38 94 -243 405 -742 1124
-1137 1713 -1155 1723 -41 22 -91 9 -327 -88z"/>
<path d="M20685 13434 c-27 -25 -99 -87 -160 -137 -855 -703 -1905 -1199
-2985 -1408 -91 -17 -167 -33 -169 -35 -2 -2 8 -17 23 -34 14 -17 32 -54 41
-82 14 -48 11 -89 -80 -977 -52 -509 -98 -944 -101 -966 -13 -82 -82 -168
-162 -202 -46 -19 -137 -18 -185 2 -20 8 -318 240 -662 515 l-625 500 -652
-362 c-359 -198 -673 -368 -698 -375 -140 -44 -297 60 -316 209 -6 49 180
1885 196 1938 6 19 13 40 16 47 3 7 -32 23 -93 43 -148 49 -407 153 -603 242
-96 44 -179 80 -185 81 -5 1 -12 -15 -15 -35 -6 -42 -106 -184 -285 -403 -699
-856 -1461 -1345 -2258 -1450 -153 -20 -441 -20 -594 0 -293 39 -557 120 -830
255 -300 148 -557 334 -803 580 -258 258 -473 557 -631 878 l-54 110 -105 12
c-159 17 -365 57 -549 106 -91 25 -214 56 -273 69 l-107 25 -728 -482 c-400
-265 -729 -482 -731 -484 -6 -4 87 -222 163 -382 723 -1534 2072 -2692 3634
-3123 269 -74 561 -126 866 -154 206 -20 644 -23 835 -6 531 46 1046 172 1545
377 194 80 560 265 740 373 l150 90 3 -3464 2 -3465 3855 0 3855 0 -3 5328
c-3 4857 -4 5337 -19 5442 -39 274 -72 432 -133 645 -49 171 -61 205 -72 205
-5 -1 -30 -21 -58 -46z"/>
<path d="M14890 11886 c0 -8 781 -661 793 -663 7 -1 264 124 572 277 l560 280
-80 -5 c-376 -24 -496 -25 -745 -10 -483 29 -847 70 -1077 120 -13 3 -23 3
-23 1z"/>
</g>
</svg>
